<svg xmlns="http://www.w3.org/2000/svg" viewBox="0 0 16 16" width="16" height="16">
  <defs>
    <linearGradient id="bg-gradient" x1="0%" y1="0%" x2="100%" y2="100%">
      <stop offset="0%" style="stop-color:#0066ff"/>
      <stop offset="100%" style="stop-color:#00d9ff"/>
    </linearGradient>
  </defs>
  <!-- Background -->
  <rect width="16" height="16" rx="3" fill="url(#bg-gradient)"/>
  <!-- Folder icon -->
  <g transform="translate(3, 4) scale(0.03125)">
    <!-- Folder back -->
    <path d="M0 48C0 21.5 21.5 0 48 0h96l32 48h144c26.5 0 48 21.5 48 48v160c0 26.5-21.5 48-48 48H48c-26.5 0-48-21.5-48-48V48z" fill="white" opacity="0.9"/>
    <!-- Document inside -->
    <rect x="80" y="80" width="160" height="120" rx="8" fill="#0066ff" opacity="0.3"/>
    <rect x="100" y="100" width="80" height="8" rx="4" fill="white"/>
    <rect x="100" y="120" width="120" height="8" rx="4" fill="white"/>
    <rect x="100" y="140" width="100" height="8" rx="4" fill="white"/>
    <rect x="100" y="160" width="60" height="8" rx="4" fill="white"/>
  </g>
</svg>