<svg xmlns="http://www.w3.org/2000/svg" viewBox="0 0 512 512">
  <defs>
    <linearGradient id="bg" x1="0%" y1="0%" x2="100%" y2="100%">
      <stop offset="0%" style="stop-color:#3b82f6"/>
      <stop offset="100%" style="stop-color:#1d4ed8"/>
    </linearGradient>
  </defs>
  <rect width="512" height="512" rx="64" fill="url(#bg)"/>
  <g fill="white">
    <!-- Document icon -->
    <path d="M160 96h128l80 80v240c0 17.7-14.3 32-32 32H160c-17.7 0-32-14.3-32-32V128c0-17.7 14.3-32 32-32z"/>
    <path d="M288 96v64c0 8.8 7.2 16 16 16h64" fill="none" stroke="white" stroke-width="16"/>
    <!-- Lines representing text -->
    <rect x="176" y="224" width="160" height="16" rx="4" fill="#3b82f6"/>
    <rect x="176" y="264" width="120" height="16" rx="4" fill="#3b82f6"/>
    <rect x="176" y="304" width="140" height="16" rx="4" fill="#3b82f6"/>
    <rect x="176" y="344" width="100" height="16" rx="4" fill="#3b82f6"/>
  </g>
  <!-- L badge -->
  <circle cx="400" cy="400" r="80" fill="#10b981"/>
  <text x="400" y="430" font-family="Arial, sans-serif" font-size="100" font-weight="bold" fill="white" text-anchor="middle">L</text>
</svg>
